# xmcd
# 
# Track frame offsets:
#     150
#     21120
#     38385
#     57487
#     77162
#     87295
#     104402
#     122172
#     137802
#     154620
#     163867
#     178722
#     191870
#     209812
#     226762
# 
# Disc length: 3274
# 
# Revision: 4
# Processed by: cddbd v1.5.2PL0 Copyright (c) Steve Scherf et al.
# Submitted via: BonkEnc v1.0
# 
DISCID=cc0cc80f
DTITLE=Varios - Sucessos Sertanejos 1
DYEAR=0
DGENRE=
TTITLE0=Joao Paulo and Daniel - Estou Apaixonado
TTITLE1=Gian and Giovani - Nem Dormindo Consigo Te Esquecer
TTITLE2=Lenadro and Leonardo - Eu Juro
TTITLE3=Rick and Renner - Cara Metade
TTITLE4=Almir Sater - Chalana
TTITLE5=Chrytian and Ralf - Ausencia
TTITLE6=Matogrosso and Mathias - Na Hora do Adeus
TTITLE7=Mauricio and Maury - Paix o ou Loucura
TTITLE8=Dalvan - Te Amo, Te Amo, Te Amo
TTITLE9=Milionario and Jose  Rico - Estrada da Vida
TTITLE10=Sergio Reis - Vanerao do Coroa
TTITLE11=Tiao Carreiro and Pardinho - Pagode em Bras lia
TTITLE12=Mario and Bruno - Fogao de Lenha/Atalho/Porta do Mundo
TTITLE13=Cascatinha and Inhana - India
TTITLE14=Sula Miranda - Caminhoneiro do Amor
EXTD=
EXTT0=Joao Paulo and Daniel
EXTT1=Gian and Giovani
EXTT2=Lenadro and Leonardo
EXTT3=Rick and Renner
EXTT4=Almir Sater
EXTT5=Chrytian and Ralf
EXTT6=Matogrosso and Mathias
EXTT7=Mauricio and Maury
EXTT8=Dalvan
EXTT9=Milionario and Jose  Rico
EXTT10=Sergio Reis
EXTT11=Tiao Carreiro and Pardinho
EXTT12=Mario and Bruno
EXTT13=Cascatinha and Inhana
EXTT14=Sula Miranda
PLAYORDER=
